<?xml version="1.0" encoding="UTF-8"?>
<svg xmlns="http://www.w3.org/2000/svg" version="1.1" width="500" height="500" viewBox="0 0 500 500"><rect x="0" y="0" width="500" height="500" fill="#ffffff"/><g transform="scale(20)"><g transform="translate(0,0)"><g><g transform="translate(3.5,3.5)"><path fill-rule="evenodd" d="M-3.5 -3.5L3.5 -3.5L3.5 3.5L-3.5 3.5ZM-2.5 -2.5L-2.5 2.5L2.5 2.5L2.5 -2.5Z" fill="#000000"/><path fill-rule="evenodd" d="M-1.5 -1.5L1.5 -1.5L1.5 1.5L-1.5 1.5Z" fill="#000000"/></g></g><g><g transform="translate(21.5,3.5)"><g transform="rotate(90)"><path fill-rule="evenodd" d="M-3.5 -3.5L3.5 -3.5L3.5 3.5L-3.5 3.5ZM-2.5 -2.5L-2.5 2.5L2.5 2.5L2.5 -2.5Z" fill="#000000"/><path fill-rule="evenodd" d="M-1.5 -1.5L1.5 -1.5L1.5 1.5L-1.5 1.5Z" fill="#000000"/></g></g></g><g><g transform="translate(3.5,21.5)"><g transform="rotate(-90)"><path fill-rule="evenodd" d="M-3.5 -3.5L3.5 -3.5L3.5 3.5L-3.5 3.5ZM-2.5 -2.5L-2.5 2.5L2.5 2.5L2.5 -2.5Z" fill="#000000"/><path fill-rule="evenodd" d="M-1.5 -1.5L1.5 -1.5L1.5 1.5L-1.5 1.5Z" fill="#000000"/></g></g></g><path fill-rule="evenodd" d="M10 0L10 2L11 2L11 0ZM12 0L12 1L13 1L13 2L12 2L12 4L13 4L13 2L14 2L14 5L11 5L11 6L10 6L10 4L11 4L11 3L8 3L8 4L9 4L9 5L8 5L8 7L9 7L9 8L6 8L6 9L10 9L10 11L11 11L11 9L12 9L12 13L11 13L11 12L9 12L9 10L6 10L6 11L7 11L7 12L4 12L4 11L3 11L3 10L4 10L4 9L5 9L5 8L0 8L0 9L1 9L1 11L3 11L3 12L0 12L0 17L1 17L1 14L3 14L3 13L7 13L7 14L5 14L5 15L4 15L4 16L2 16L2 17L8 17L8 19L10 19L10 20L12 20L12 22L10 22L10 21L9 21L9 20L8 20L8 25L11 25L11 24L13 24L13 23L14 23L14 24L16 24L16 25L17 25L17 23L18 23L18 24L22 24L22 25L25 25L25 24L24 24L24 23L25 23L25 21L23 21L23 22L22 22L22 23L21 23L21 21L22 21L22 19L25 19L25 15L23 15L23 14L25 14L25 12L23 12L23 14L22 14L22 15L23 15L23 16L24 16L24 18L22 18L22 19L21 19L21 17L22 17L22 16L17 16L17 15L19 15L19 14L20 14L20 15L21 15L21 13L22 13L22 12L18 12L18 11L19 11L19 10L20 10L20 11L21 11L21 9L22 9L22 8L21 8L21 9L20 9L20 8L19 8L19 10L18 10L18 8L15 8L15 6L16 6L16 7L17 7L17 3L15 3L15 2L14 2L14 1L16 1L16 2L17 2L17 1L16 1L16 0L14 0L14 1L13 1L13 0ZM8 1L8 2L9 2L9 1ZM15 4L15 5L14 5L14 6L13 6L13 7L12 7L12 6L11 6L11 7L12 7L12 8L13 8L13 10L14 10L14 11L13 11L13 14L11 14L11 13L8 13L8 14L11 14L11 15L13 15L13 16L10 16L10 15L9 15L9 16L10 16L10 19L13 19L13 20L14 20L14 21L13 21L13 22L12 22L12 23L13 23L13 22L14 22L14 23L17 23L17 22L18 22L18 21L17 21L17 22L14 22L14 21L16 21L16 19L15 19L15 18L16 18L16 17L13 17L13 16L14 16L14 15L15 15L15 16L16 16L16 15L17 15L17 14L16 14L16 15L15 15L15 14L14 14L14 11L15 11L15 12L17 12L17 10L16 10L16 9L15 9L15 8L14 8L14 6L15 6L15 5L16 5L16 4ZM9 6L9 7L10 7L10 6ZM10 8L10 9L11 9L11 8ZM23 8L23 9L24 9L24 10L25 10L25 9L24 9L24 8ZM2 9L2 10L3 10L3 9ZM14 9L14 10L15 10L15 9ZM22 10L22 11L23 11L23 10ZM18 13L18 14L19 14L19 13ZM13 14L13 15L14 15L14 14ZM5 15L5 16L8 16L8 15ZM12 17L12 18L13 18L13 19L14 19L14 20L15 20L15 19L14 19L14 18L13 18L13 17ZM17 17L17 20L20 20L20 17ZM18 18L18 19L19 19L19 18ZM19 21L19 23L20 23L20 21ZM23 22L23 23L22 23L22 24L23 24L23 23L24 23L24 22Z" fill="#000000"/></g></g></svg>
